<mxfile host="app.diagrams.net" agent="Mozilla/5.0 (Windows NT 10.0; Win64; x64) AppleWebKit/537.36 (KHTML, like Gecko) Chrome/127.0.0.0 Safari/537.36 OPR/113.0.0.0" version="24.7.16">
  <diagram name="Page-1" id="6ShhQ4oq6UY9wY_P9pH2">
    <mxGraphModel dx="826" dy="435" grid="1" gridSize="10" guides="1" tooltips="1" connect="1" arrows="1" fold="1" page="1" pageScale="1" pageWidth="850" pageHeight="1100" math="0" shadow="0">
      <root>
        <mxCell id="0" />
        <mxCell id="1" parent="0" />
        <mxCell id="rcuG5gvBTfA99FA1sJDj-1" value="User" style="rounded=0;whiteSpace=wrap;html=1;" vertex="1" parent="1">
          <mxGeometry x="100" y="50" width="120" height="60" as="geometry" />
        </mxCell>
        <mxCell id="rcuG5gvBTfA99FA1sJDj-6" value="" style="endArrow=classic;html=1;rounded=0;" edge="1" parent="1" target="rcuG5gvBTfA99FA1sJDj-8">
          <mxGeometry relative="1" as="geometry">
            <mxPoint x="220" y="79.5" as="sourcePoint" />
            <mxPoint x="360" y="80" as="targetPoint" />
            <Array as="points">
              <mxPoint x="270" y="79.5" />
            </Array>
          </mxGeometry>
        </mxCell>
        <mxCell id="rcuG5gvBTfA99FA1sJDj-7" value="confirmation" style="edgeLabel;resizable=0;html=1;;align=center;verticalAlign=middle;" connectable="0" vertex="1" parent="rcuG5gvBTfA99FA1sJDj-6">
          <mxGeometry relative="1" as="geometry" />
        </mxCell>
        <mxCell id="rcuG5gvBTfA99FA1sJDj-8" value="production&lt;div&gt;cart&lt;/div&gt;" style="ellipse;whiteSpace=wrap;html=1;aspect=fixed;" vertex="1" parent="1">
          <mxGeometry x="430" y="40" width="80" height="80" as="geometry" />
        </mxCell>
        <mxCell id="rcuG5gvBTfA99FA1sJDj-9" value="" style="endArrow=classic;html=1;rounded=0;exitX=1;exitY=0.5;exitDx=0;exitDy=0;" edge="1" parent="1" source="rcuG5gvBTfA99FA1sJDj-8">
          <mxGeometry relative="1" as="geometry">
            <mxPoint x="520" y="80" as="sourcePoint" />
            <mxPoint x="650" y="80" as="targetPoint" />
          </mxGeometry>
        </mxCell>
        <mxCell id="rcuG5gvBTfA99FA1sJDj-14" style="edgeStyle=orthogonalEdgeStyle;rounded=0;orthogonalLoop=1;jettySize=auto;html=1;" edge="1" parent="1">
          <mxGeometry relative="1" as="geometry">
            <mxPoint x="1868" y="839" as="targetPoint" />
            <mxPoint x="1768" y="570" as="sourcePoint" />
          </mxGeometry>
        </mxCell>
        <mxCell id="rcuG5gvBTfA99FA1sJDj-13" value="cart" style="whiteSpace=wrap;html=1;aspect=fixed;" vertex="1" parent="1">
          <mxGeometry x="650" y="40" width="80" height="80" as="geometry" />
        </mxCell>
        <mxCell id="rcuG5gvBTfA99FA1sJDj-15" value="" style="endArrow=classic;html=1;rounded=0;" edge="1" parent="1">
          <mxGeometry width="50" height="50" relative="1" as="geometry">
            <mxPoint x="690" y="121" as="sourcePoint" />
            <mxPoint x="690" y="240" as="targetPoint" />
          </mxGeometry>
        </mxCell>
        <mxCell id="rcuG5gvBTfA99FA1sJDj-16" value="view cart" style="whiteSpace=wrap;html=1;aspect=fixed;" vertex="1" parent="1">
          <mxGeometry x="650" y="240" width="80" height="80" as="geometry" />
        </mxCell>
        <mxCell id="rcuG5gvBTfA99FA1sJDj-18" value="" style="endArrow=classic;html=1;rounded=0;exitX=0;exitY=0.5;exitDx=0;exitDy=0;" edge="1" parent="1" source="rcuG5gvBTfA99FA1sJDj-16">
          <mxGeometry width="50" height="50" relative="1" as="geometry">
            <mxPoint x="620" y="279.5" as="sourcePoint" />
            <mxPoint x="530" y="279.5" as="targetPoint" />
          </mxGeometry>
        </mxCell>
        <mxCell id="rcuG5gvBTfA99FA1sJDj-21" value="production cart" style="whiteSpace=wrap;html=1;aspect=fixed;" vertex="1" parent="1">
          <mxGeometry x="450" y="240" width="80" height="80" as="geometry" />
        </mxCell>
        <mxCell id="rcuG5gvBTfA99FA1sJDj-22" value="" style="endArrow=classic;html=1;rounded=0;" edge="1" parent="1" target="rcuG5gvBTfA99FA1sJDj-23">
          <mxGeometry width="50" height="50" relative="1" as="geometry">
            <mxPoint x="450" y="279.5" as="sourcePoint" />
            <mxPoint x="320" y="280" as="targetPoint" />
            <Array as="points">
              <mxPoint x="400" y="279.5" />
            </Array>
          </mxGeometry>
        </mxCell>
        <mxCell id="rcuG5gvBTfA99FA1sJDj-23" value="checkout" style="ellipse;whiteSpace=wrap;html=1;" vertex="1" parent="1">
          <mxGeometry x="260" y="235" width="80" height="90" as="geometry" />
        </mxCell>
        <mxCell id="rcuG5gvBTfA99FA1sJDj-28" style="edgeStyle=orthogonalEdgeStyle;rounded=0;orthogonalLoop=1;jettySize=auto;html=1;exitX=0.5;exitY=1;exitDx=0;exitDy=0;" edge="1" parent="1" source="rcuG5gvBTfA99FA1sJDj-23" target="rcuG5gvBTfA99FA1sJDj-23">
          <mxGeometry relative="1" as="geometry" />
        </mxCell>
        <mxCell id="rcuG5gvBTfA99FA1sJDj-29" value="" style="endArrow=classic;html=1;rounded=0;edgeStyle=orthogonalEdgeStyle;entryX=0.5;entryY=1;entryDx=0;entryDy=0;" edge="1" parent="1" target="rcuG5gvBTfA99FA1sJDj-23">
          <mxGeometry relative="1" as="geometry">
            <mxPoint x="760" y="360" as="sourcePoint" />
            <mxPoint x="300" y="360" as="targetPoint" />
          </mxGeometry>
        </mxCell>
        <mxCell id="rcuG5gvBTfA99FA1sJDj-30" value="product" style="edgeLabel;resizable=0;html=1;;align=center;verticalAlign=middle;" connectable="0" vertex="1" parent="rcuG5gvBTfA99FA1sJDj-29">
          <mxGeometry relative="1" as="geometry" />
        </mxCell>
        <mxCell id="rcuG5gvBTfA99FA1sJDj-31" value="" style="endArrow=none;html=1;rounded=0;exitX=1;exitY=0.5;exitDx=0;exitDy=0;edgeStyle=orthogonalEdgeStyle;" edge="1" parent="1" source="rcuG5gvBTfA99FA1sJDj-13">
          <mxGeometry width="50" height="50" relative="1" as="geometry">
            <mxPoint x="760" y="90" as="sourcePoint" />
            <mxPoint x="760" y="360" as="targetPoint" />
          </mxGeometry>
        </mxCell>
      </root>
    </mxGraphModel>
  </diagram>
</mxfile>
